# File created by Blade
# Date/Time:  Fri Jan 16 19:18:57 2015
# Frame Rate: 120.000 fps
#------------------------------------------------------
:FULLY-SPECIFIED
:DEGREES
761
root 19.920921 35.721021 -22.115467 -166.621476 -1.509736 -178.075607
Spine -27.261739 -5.545270 1.795446
Head 18.798200 -5.590990 21.138132
LeftShoulder -26.078916 -68.110849 84.480931
LeftArm 64.030772 -44.751377 -23.816687
LeftForeArm -67.547725 0.000000 105.536683
LeftHand 8.091260 0.000000 -1.897685
LeftHandThumb1 -26.253704 0.000000 33.147579
RightShoulder -16.506409 11.725610 -32.122077
RightArm 32.597470 77.257598 1.788301
RightForeArm 43.457342 0.000000 89.443237
RightHand 5.448626 -0.000000 8.725164
RightHandThumb1 -24.326973 -0.000000 -32.862282
LeftUpLeg -4.709731 9.012786 0.507713
LeftLeg -6.983231 -0.000000 0.000000
LeftFoot -19.474995 25.950134 -14.325870
LeftToeBase 25.670836 -0.000000 -0.000000
RightUpLeg -5.277291 -6.337534 2.092021
RightLeg -3.534342 -0.000000 0.000000
RightFoot -20.424302 -23.790864 19.426719
RightToeBase 22.468338 -0.000000 -0.000000
762
root 19.919890 35.719830 -22.117812 -166.628175 -1.502420 -178.066602
Spine -27.277456 -5.569976 1.797664
Head 18.881052 -5.620847 21.139000
LeftShoulder -25.998731 -68.178912 84.489177
LeftArm 64.024305 -44.682415 -23.894335
LeftForeArm -67.548127 -0.000000 105.579134
LeftHand 8.107811 0.000000 -1.907278
LeftHandThumb1 -26.253704 0.000000 33.147579
RightShoulder -16.612948 11.690189 -32.066946
RightArm 33.282472 77.155227 2.467398
RightForeArm 43.364348 -0.000000 89.462983
RightHand 5.383545 -0.000000 8.684531
RightHandThumb1 -24.326973 -0.000000 -32.862282
LeftUpLeg -4.693795 9.020345 0.508504
LeftLeg -7.005173 -0.000000 0.000000
LeftFoot -19.492083 26.013016 -14.339527
LeftToeBase 25.674050 -0.000000 -0.000000
RightUpLeg -5.264404 -6.342510 2.097391
RightLeg -3.543059 -0.000000 0.000000
RightFoot -20.406349 -23.763157 19.556592
RightToeBase 22.096960 -0.000000 -0.000000
763
root 19.918752 35.719039 -22.119011 -166.634605 -1.488973 -178.057216
Spine -27.288783 -5.605630 1.806224
Head 18.950328 -5.640786 21.165939
LeftShoulder -25.885781 -68.198383 84.445640
LeftArm 64.040148 -44.631719 -23.945486
LeftForeArm -67.507969 0.000000 105.612382
LeftHand 8.152916 0.000000 -1.825586
LeftHandThumb1 -26.253704 0.000000 33.147579
RightShoulder -16.632451 11.644328 -32.009960
RightArm 33.321113 77.080291 2.515254
RightForeArm 43.371432 -0.000000 89.495397
RightHand 5.347206 -0.000000 8.647511
RightHandThumb1 -24.326973 -0.000000 -32.862282
LeftUpLeg -4.686446 9.044260 0.512412
LeftLeg -7.002059 -0.000000 0.000000
LeftFoot -19.501788 26.014283 -14.317504
LeftToeBase 25.694083 -0.000000 -0.000000
RightUpLeg -5.257295 -6.340099 2.101680
RightLeg -3.541285 -0.000000 0.000000
RightFoot -20.406497 -23.747852 19.540553
RightToeBase 22.133817 -0.000000 -0.000000
764
root 19.917286 35.717930 -22.121151 -166.644533 -1.480167 -178.050821
Spine -27.287169 -5.667503 1.828760
Head 18.989083 -5.681634 21.162260
LeftShoulder -26.250742 -68.417813 84.935314
LeftArm 63.843960 -44.330738 -23.954563
LeftForeArm -67.584064 -0.000000 105.704700
LeftHand 8.154891 -0.000000 -1.770656
LeftHandThumb1 -26.253704 0.000000 33.147579
RightShoulder -16.703371 11.730606 -32.048281
RightArm 33.678721 76.858983 2.957895
RightForeArm 43.373932 -0.000000 89.558278
RightHand 5.304412 -0.000000 8.630880
RightHandThumb1 -24.326973 -0.000000 -32.862282
LeftUpLeg -4.674210 9.052232 0.516263
LeftLeg -6.995609 -0.000000 0.000000
LeftFoot -19.515161 26.020844 -14.297780
LeftToeBase 25.671556 -0.000000 -0.000000
RightUpLeg -5.242064 -6.333150 2.102830
RightLeg -3.546827 -0.000000 0.000000
RightFoot -20.408668 -23.752009 19.543284
RightToeBase 22.120724 -0.000000 -0.000000
765
root 19.916937 35.717686 -22.122781 -166.665670 -1.463507 -178.038531
Spine -27.275569 -5.699377 1.829811
Head 19.048453 -5.722815 21.224522
LeftShoulder -26.250831 -68.466193 84.999951
LeftArm 63.882183 -44.226579 -24.070402
LeftForeArm -67.660591 -0.000000 105.712340
LeftHand 8.164032 -0.000000 -1.828972
LeftHandThumb1 -26.253704 0.000000 33.147579
RightShoulder -16.746958 11.776076 -32.015224
RightArm 33.811334 76.677259 3.096379
RightForeArm 43.376915 -0.000000 89.568403
RightHand 5.296386 0.000000 8.614626
RightHandThumb1 -24.326973 -0.000000 -32.862282
LeftUpLeg -4.647022 9.068693 0.528060
LeftLeg -6.998559 -0.000000 0.000000
LeftFoot -19.527795 26.021986 -14.293821
LeftToeBase 25.672080 -0.000000 -0.000000
RightUpLeg -5.229256 -6.326273 2.108344
RightLeg -3.529118 -0.000000 0.000000
RightFoot -20.404626 -23.690061 19.549622
RightToeBase 22.187901 -0.000000 -0.000000
